<svg width="289" height="62" viewBox="0 0 289 62" fill="none" xmlns="http://www.w3.org/2000/svg">
<path d="M70.6766 10.9337C68.7359 8.68307 66.3683 6.78167 63.6902 5.19069C58.5281 2.20277 52.318 0.611802 45.6421 0.611802C45.4093 0.611802 45.1764 0.611802 44.9435 0.611802C43.5074 0.611802 41.7608 0.611802 39.8978 0.611802C37.7243 0.611802 28.5256 0.611802 26.5461 0.611802C25.2265 0.611802 22.626 0.611802 22.626 0.611802V5.73395L4.11217 3.01766C4.03454 3.01766 3.95692 3.01766 3.91811 2.97886C3.64641 2.94005 3.41354 2.90125 3.18066 2.90125C2.7149 2.90125 2.36558 3.05646 2.09389 3.3669L1.93864 3.52212C1.20119 4.337 0.463744 5.11309 0.308492 5.34591C-0.428956 6.39362 0.347305 6.93688 0.657809 7.1309L0.696622 7.16971L19.7926 20.1691C19.4045 21.1004 18.2401 24.3988 18.6283 28.7836C19.0164 33.4789 17.2698 36.5057 15.8725 38.9115C15.6008 39.3772 15.368 39.804 15.1351 40.1921C14.5529 41.2786 14.5917 42.5591 15.1739 43.6456L19.3269 52.0273C19.9479 53.1526 21.384 53.7347 22.626 53.8123V61.4955H40.5576C46.5737 61.4955 53.4824 61.1851 59.1491 58.8569C66.6788 55.9854 72.5008 50.0871 75.4506 42.2487C76.8478 38.5623 77.5465 34.6819 77.5465 30.6462C77.5465 26.5718 76.8478 22.6138 75.4118 18.8498C74.325 15.9783 72.7337 13.262 70.6766 10.9337ZM64.8546 25.6017C63.8067 24.7868 62.0601 23.8167 60.4299 23.5451L60.5852 24.1659C62.7199 25.8345 63.3409 28.2792 63.6126 31.1507C63.8843 34.255 63.2245 37.5146 61.7884 40.3085C59.9642 43.8008 55.1125 49.6991 42.964 49.6991H37.1421C37.0256 48.7678 37.0256 47.7977 37.1421 46.8276C37.6078 42.7143 39.3544 40.5801 40.8681 38.7175C42.343 36.8937 43.5851 36.1176 44.633 35.4191C45.6033 34.7983 46.496 34.2162 47.3887 33.0521C48.7472 31.2671 48.2038 29.4045 48.2038 29.3269L48.165 29.2105L46.1467 27.8135L46.2632 28.5896C46.2632 28.5896 46.4572 30.103 45.9138 31.0343C45.1376 32.4312 43.3134 33.4013 41.722 34.255C41.528 34.3714 41.3339 34.449 41.1786 34.5654C40.8293 34.7207 36.7151 36.5445 34.2311 39.416C32.3293 41.6278 31.3201 45.9739 31.2425 46.4007C31.0484 46.8664 30.5439 47.2156 29.9617 47.2156H26.158C25.6146 47.2156 25.0712 46.9828 24.8772 46.6335L22.8201 42.7919C22.4319 42.0159 22.3931 41.4726 22.626 41.0069C22.7813 40.7353 25.0324 36.8161 25.5758 32.9745C25.6534 32.276 25.6922 31.5775 25.6922 30.9567C25.6922 30.491 25.6922 30.0642 25.6534 29.6761C25.5758 26.1449 25.537 25.2913 26.4685 22.2645C26.8566 20.984 27.6717 19.4318 28.7585 18.0737L29.0302 17.7244L13.9707 10.3516C13.7378 10.2352 13.7378 10.1576 13.8154 10.0024C13.8931 9.886 13.9319 9.84719 14.0871 9.65317C14.2424 9.49796 14.3588 9.49796 14.5917 9.57557L31.5918 14.3873L31.9411 14.4649L32.3293 14.5425L32.4457 14.4649C32.4457 14.4649 33.2608 13.9604 33.8042 13.65L34.658 13.1455L32.0188 12.7187L32.0576 9.42035C32.0576 9.30394 32.174 9.26513 32.2516 9.30394L37.0645 11.7874L37.1809 11.7486C39.3156 11.0113 41.6444 10.7785 44.1672 10.7785C49.6787 10.7785 55.1902 12.5635 58.8774 15.5126C58.955 15.5514 58.9162 15.6678 58.7998 15.6678C57.6742 15.5126 55.6559 15.3962 54.0646 15.6678L54.2586 16.0947C54.2586 16.0947 56.6262 16.4439 58.8774 17.8409C60.7792 19.0438 63.3409 21.3332 64.9322 25.5241C65.0099 25.6017 64.9322 25.6405 64.8546 25.6017ZM111.624 40.8905C111.624 43.6456 110.809 45.8575 109.14 47.4872C107.51 49.117 105.337 49.9319 102.697 49.9319C100.097 49.9319 98.001 49.117 96.4484 47.5648C94.8959 46.0127 94.1197 43.8785 94.1197 41.2398V13.1844H80.4575V40.5413C80.4575 47.6425 81.9712 52.9974 84.9598 56.5286C86.4347 58.2748 88.2589 59.5941 90.3548 60.4866C92.4507 61.3791 94.9347 61.806 97.6516 61.806H98.2727C101.921 61.806 105.026 61.0299 107.471 59.4777C109.878 57.9256 111.741 55.5585 112.944 52.4154C113.332 51.4453 113.643 50.3587 113.914 49.2334L114.613 49.311V61.1075H125.248V13.1844H111.586V40.8905H111.624ZM166.157 14.9305C162.625 12.6799 158.2 11.5546 153.038 11.5546C149.118 11.5546 145.547 12.2142 142.481 13.5724C139.414 14.8917 136.814 16.7543 134.718 19.005C132.622 21.2944 131.031 23.8943 129.944 26.7658C128.857 29.6373 128.314 32.7029 128.314 35.846V37.5922C128.314 40.6189 128.857 43.6068 129.944 46.4783C131.031 49.3498 132.661 51.9885 134.757 54.3168C136.853 56.645 139.531 58.5076 142.636 59.9046C145.78 61.2627 149.428 61.9612 153.542 61.9612C157.579 61.9612 161.227 61.2627 164.332 59.8658C167.438 58.4688 170.038 56.5286 172.095 54.0839C174.036 51.7557 175.394 49.0782 176.132 46.1291H163.673C163.013 47.5648 161.848 48.7678 160.218 49.7379C158.511 50.7468 156.259 51.2512 153.581 51.2512C150.67 51.2512 148.225 50.6304 146.401 49.4663C144.538 48.2633 143.179 46.5559 142.325 44.3829C141.86 43.18 141.51 41.8606 141.316 40.4249L141.239 40.0368H177.141V35.652C177.141 31.3835 176.17 27.3867 174.307 23.7391C172.444 20.1303 169.689 17.1812 166.157 14.9305ZM141.355 32.7805L141.433 32.3536C141.666 31.0731 142.015 29.909 142.442 28.8224C143.373 26.6494 144.732 24.9808 146.517 23.8555C148.303 22.769 150.515 22.1869 153.077 22.1869C155.6 22.1869 157.695 22.7302 159.403 23.8555C161.111 24.9808 162.392 26.5718 163.207 28.6284C163.634 29.7149 163.983 30.9567 164.177 32.3148L164.255 32.7029H141.355V32.7805ZM287.215 26.533C286.011 23.5839 284.304 20.984 282.052 18.7722C279.84 16.5603 277.123 14.7753 273.941 13.4948C270.758 12.2142 267.109 11.5546 263.073 11.5546C259.114 11.5546 255.504 12.2142 252.322 13.4948C249.139 14.7753 246.383 16.5603 244.132 18.7722C241.881 20.984 240.134 23.5839 238.931 26.533C237.728 29.4821 237.146 32.5864 237.146 35.846V37.8638C237.146 41.0457 237.728 44.1501 238.854 47.0216C239.979 49.8931 241.687 52.493 243.899 54.7436C246.112 56.9943 248.867 58.7793 252.05 60.0598C255.233 61.3403 258.959 62 263.073 62C267.226 62 270.991 61.3403 274.173 60.0598C277.356 58.7793 280.073 56.9943 282.285 54.7436C284.459 52.493 286.167 49.8931 287.292 47.0216C288.418 44.1501 289 41.0845 289 37.8638V35.846C289 32.5864 288.418 29.4433 287.215 26.533ZM274.251 43.9949C273.281 46.1291 271.883 47.8365 270.02 49.0394C268.157 50.2423 265.829 50.8244 263.034 50.8244C260.356 50.8244 258.066 50.2035 256.164 49.0394C254.262 47.8365 252.787 46.1679 251.856 43.9949C250.924 41.8606 250.42 39.4936 250.42 36.8937C250.42 34.1386 250.924 31.6551 251.895 29.5597C252.865 27.4643 254.34 25.7569 256.242 24.554C258.144 23.351 260.434 22.7302 263.034 22.7302C265.712 22.7302 268.002 23.351 269.865 24.554C271.728 25.7569 273.203 27.4643 274.173 29.5597C275.144 31.6551 275.648 34.1386 275.648 36.8937C275.687 39.4548 275.221 41.8606 274.251 43.9949ZM222.164 0.223761C222.164 0.0297398 221.97 -0.0478686 221.815 0.0297398L209.472 5.77276C209.394 5.81156 209.356 5.88917 209.356 5.96678V13.1844H193.132V0.223761C193.132 0.0297398 192.938 -0.0478686 192.782 0.0297398L180.44 5.77276C180.362 5.81156 180.323 5.88917 180.323 5.96678V13.262L180.246 42.0935C180.246 46.8276 180.944 50.6304 182.303 53.3855C183.661 56.1018 185.796 58.0808 188.668 59.2837C191.579 60.4866 195.461 61.0687 200.196 61.0687H206.328V49.9319H200.312C198.022 49.9319 196.237 49.311 194.956 48.0305C193.714 46.7888 193.054 44.965 193.054 42.5979V26.2614H209.317L209.278 42.0935C209.278 46.8276 209.977 50.6304 211.335 53.3855C212.694 56.1018 214.828 58.0808 217.7 59.2837C220.611 60.4866 224.493 61.0687 229.228 61.0687H235.36V49.9319H229.344C227.054 49.9319 225.269 49.311 223.988 48.0305C222.746 46.7888 222.086 44.965 222.086 42.5979V26.2614H235.322V13.1844H222.086V0.223761H222.164Z" fill="white"/>
</svg>
